<svg width="24" height="24" viewBox="0 0 24 24" fill="none" xmlns="http://www.w3.org/2000/svg">
<path fill-rule="evenodd" clip-rule="evenodd" d="M17.0311 2.46888C17.101 2.53854 17.1564 2.62131 17.1942 2.71243C17.232 2.80354 17.2515 2.90123 17.2515 2.99988C17.2515 3.09853 17.232 3.19621 17.1942 3.28733C17.1564 3.37844 17.101 3.46121 17.0311 3.53088L8.56062 11.9999L17.0311 20.4689C17.1008 20.5386 17.1562 20.6214 17.1939 20.7125C17.2316 20.8036 17.2511 20.9013 17.2511 20.9999C17.2511 21.0985 17.2316 21.1961 17.1939 21.2873C17.1562 21.3784 17.1008 21.4611 17.0311 21.5309C16.9614 21.6006 16.8786 21.6559 16.7875 21.6937C16.6964 21.7314 16.5987 21.7508 16.5001 21.7508C16.4015 21.7508 16.3038 21.7314 16.2127 21.6937C16.1216 21.6559 16.0388 21.6006 15.9691 21.5309L6.96912 12.5309C6.89927 12.4612 6.84386 12.3784 6.80605 12.2873C6.76824 12.1962 6.74878 12.0985 6.74878 11.9999C6.74878 11.9012 6.76824 11.8035 6.80605 11.7124C6.84386 11.6213 6.89927 11.5385 6.96912 11.4689L15.9691 2.46888C16.0388 2.39903 16.1215 2.34362 16.2127 2.30581C16.3038 2.268 16.4015 2.24854 16.5001 2.24854C16.5988 2.24854 16.6964 2.268 16.7876 2.30581C16.8787 2.34362 16.9614 2.39903 17.0311 2.46888Z" fill="#2169F6"/>
</svg>
