<svg width="17" height="16" viewBox="0 0 17 16" fill="none" xmlns="http://www.w3.org/2000/svg">
<path fill-rule="evenodd" clip-rule="evenodd" d="M2.14592 4.64592C2.19236 4.59935 2.24754 4.56241 2.30828 4.5372C2.36903 4.512 2.43415 4.49902 2.49992 4.49902C2.56568 4.49902 2.63081 4.512 2.69155 4.5372C2.7523 4.56241 2.80747 4.59935 2.85392 4.64592L8.49992 10.2929L14.1459 4.64592C14.1924 4.59943 14.2476 4.56255 14.3083 4.53739C14.3691 4.51223 14.4342 4.49929 14.4999 4.49929C14.5657 4.49929 14.6308 4.51223 14.6915 4.53739C14.7522 4.56255 14.8074 4.59943 14.8539 4.64592C14.9004 4.6924 14.9373 4.74759 14.9624 4.80833C14.9876 4.86907 15.0005 4.93417 15.0005 4.99992C15.0005 5.06566 14.9876 5.13076 14.9624 5.1915C14.9373 5.25224 14.9004 5.30743 14.8539 5.35392L8.85392 11.3539C8.80747 11.4005 8.7523 11.4374 8.69155 11.4626C8.63081 11.4878 8.56568 11.5008 8.49992 11.5008C8.43415 11.5008 8.36903 11.4878 8.30828 11.4626C8.24754 11.4374 8.19236 11.4005 8.14592 11.3539L2.14592 5.35392C2.09935 5.30747 2.06241 5.2523 2.0372 5.19155C2.012 5.13081 1.99902 5.06568 1.99902 4.99992C1.99902 4.93415 2.012 4.86903 2.0372 4.80828C2.06241 4.74754 2.09935 4.69236 2.14592 4.64592Z" fill="#2169F6"/>
</svg>
