<svg width="25" height="25" viewBox="0 0 25 25" fill="none" xmlns="http://www.w3.org/2000/svg">
<path fill-rule="evenodd" clip-rule="evenodd" d="M10.046 20.4196C10.046 20.6185 10.125 20.8092 10.2657 20.9499C10.4063 21.0905 10.5971 21.1696 10.796 21.1696H20.75C21.3467 21.1696 21.919 20.9325 22.341 20.5105C22.7629 20.0886 23 19.5163 23 18.9196V3.91956C23 3.32282 22.7629 2.75052 22.341 2.32857C21.919 1.90661 21.3467 1.66956 20.75 1.66956H5.75C5.15326 1.66956 4.58097 1.90661 4.15901 2.32857C3.73705 2.75052 3.5 3.32282 3.5 3.91956V13.8736C3.5 14.0725 3.57902 14.2632 3.71967 14.4039C3.86032 14.5445 4.05109 14.6236 4.25 14.6236C4.44891 14.6236 4.63968 14.5445 4.78033 14.4039C4.92098 14.2632 5 14.0725 5 13.8736V3.91956C5 3.72064 5.07902 3.52988 5.21967 3.38923C5.36032 3.24857 5.55109 3.16956 5.75 3.16956H20.75C20.9489 3.16956 21.1397 3.24857 21.2803 3.38923C21.421 3.52988 21.5 3.72064 21.5 3.91956V18.9196C21.5 19.1185 21.421 19.3092 21.2803 19.4499C21.1397 19.5905 20.9489 19.6696 20.75 19.6696H10.796C10.5971 19.6696 10.4063 19.7486 10.2657 19.8892C10.125 20.0299 10.046 20.2206 10.046 20.4196Z" fill="#2169F6"/>
<path fill-rule="evenodd" clip-rule="evenodd" d="M17 8.41956C17 8.22064 16.921 8.02988 16.7803 7.88923C16.6396 7.74857 16.4489 7.66956 16.25 7.66956H8.74997C8.55106 7.66956 8.36029 7.74857 8.21964 7.88923C8.07899 8.02988 7.99997 8.22064 7.99997 8.41956C7.99997 8.61847 8.07899 8.80923 8.21964 8.94989C8.36029 9.09054 8.55106 9.16956 8.74997 9.16956H14.4395L2.21897 21.3886C2.07814 21.5294 1.99902 21.7204 1.99902 21.9196C1.99902 22.1187 2.07814 22.3097 2.21897 22.4506C2.3598 22.5914 2.55081 22.6705 2.74997 22.6705C2.94913 22.6705 3.14014 22.5914 3.28097 22.4506L15.5 10.2301V15.9196C15.5 16.1185 15.579 16.3092 15.7196 16.4499C15.8603 16.5905 16.0511 16.6696 16.25 16.6696C16.4489 16.6696 16.6396 16.5905 16.7803 16.4499C16.921 16.3092 17 16.1185 17 15.9196V8.41956Z" fill="#2169F6"/>
</svg>
