<svg width="17" height="16" viewBox="0 0 17 16" fill="none" xmlns="http://www.w3.org/2000/svg">
<path fill-rule="evenodd" clip-rule="evenodd" d="M5.14592 14.3541C5.09935 14.3077 5.06241 14.2525 5.0372 14.1918C5.012 14.131 4.99902 14.0659 4.99902 14.0001C4.99902 13.9344 5.012 13.8693 5.0372 13.8085C5.06241 13.7478 5.09935 13.6926 5.14592 13.6461L10.7929 8.00014L5.14592 2.35414C5.09943 2.30766 5.06255 2.25247 5.03739 2.19173C5.01223 2.13099 4.99928 2.06589 4.99928 2.00014C4.99928 1.9344 5.01223 1.8693 5.03739 1.80856C5.06255 1.74782 5.09943 1.69263 5.14592 1.64614C5.1924 1.59966 5.24759 1.56278 5.30833 1.53762C5.36907 1.51246 5.43417 1.49951 5.49992 1.49951C5.56566 1.49951 5.63076 1.51246 5.6915 1.53762C5.75224 1.56278 5.80743 1.59966 5.85392 1.64614L11.8539 7.64614C11.9005 7.69259 11.9374 7.74777 11.9626 7.80851C11.9878 7.86926 12.0008 7.93438 12.0008 8.00014C12.0008 8.06591 11.9878 8.13103 11.9626 8.19178C11.9374 8.25252 11.9005 8.3077 11.8539 8.35414L5.85392 14.3541C5.80747 14.4007 5.7523 14.4376 5.69155 14.4629C5.63081 14.4881 5.56568 14.501 5.49992 14.501C5.43415 14.501 5.36903 14.4881 5.30828 14.4629C5.24754 14.4376 5.19236 14.4007 5.14592 14.3541Z" fill="#2169F6"/>
</svg>
