<svg width="22" height="24" viewBox="0 0 22 24" fill="none" xmlns="http://www.w3.org/2000/svg">
<path d="M11 24.0003C11.7956 24.0003 12.5587 23.6843 13.1213 23.1217C13.6839 22.559 14 21.796 14 21.0003H8C8 21.796 8.31607 22.559 8.87868 23.1217C9.44129 23.6843 10.2044 24.0003 11 24.0003ZM11 2.87734L9.8045 3.11884C8.44818 3.39461 7.22891 4.13082 6.3533 5.20272C5.47769 6.27461 4.99958 7.61626 5 9.00034C5 9.94234 4.799 12.2958 4.3115 14.6133C4.0715 15.7638 3.7475 16.9623 3.317 18.0003H18.683C18.2525 16.9623 17.93 15.7653 17.6885 14.6133C17.201 12.2958 17 9.94234 17 9.00034C17.0001 7.61652 16.5218 6.27522 15.6462 5.20364C14.7706 4.13205 13.5516 3.39606 12.1955 3.12034L11 2.87734ZM20.33 18.0003C20.6645 18.6708 21.0515 19.2018 21.5 19.5003H0.5C0.9485 19.2018 1.3355 18.6708 1.67 18.0003C3.02 15.3003 3.5 10.3203 3.5 9.00034C3.5 5.37034 6.08 2.34034 9.5075 1.64884C9.48656 1.44027 9.50958 1.22962 9.57505 1.0305C9.64052 0.831366 9.74701 0.64817 9.88763 0.492723C10.0283 0.337275 10.1999 0.213028 10.3915 0.127993C10.5831 0.0429577 10.7904 -0.000976562 11 -0.000976562C11.2096 -0.000976563 11.4169 0.0429577 11.6085 0.127993C11.8001 0.213028 11.9717 0.337275 12.1124 0.492723C12.253 0.64817 12.3595 0.831366 12.4249 1.0305C12.4904 1.22962 12.5134 1.44027 12.4925 1.64884C14.1882 1.99316 15.7127 2.91321 16.8075 4.25303C17.9024 5.59286 18.5003 7.27005 18.5 9.00034C18.5 10.3203 18.98 15.3003 20.33 18.0003Z" fill="#2169F6"/>
</svg>
