<svg width="33" height="32" viewBox="0 0 33 32" fill="none" xmlns="http://www.w3.org/2000/svg">
<path d="M2.79671 5.87139C4.52777 5.1481 7.00983 4.36889 9.42316 4.12547C12.0253 3.86301 14.2325 4.24887 15.511 5.59585V24.6592C13.6823 23.6224 11.3655 23.4801 9.22686 23.6958C6.91796 23.9287 4.59179 24.5977 2.79671 25.2821V5.87139ZM17.467 5.59585C18.7455 4.24887 20.9527 3.86301 23.5549 4.12547C25.9682 4.36889 28.4503 5.1481 30.1813 5.87139V25.2821C28.3863 24.5977 26.0601 23.9287 23.7512 23.6958C21.6126 23.4801 19.2957 23.6224 17.467 24.6592V5.59585ZM16.489 3.82828C14.5625 2.1723 11.7688 1.92292 9.22686 2.17931C6.2652 2.47803 3.27513 3.49435 1.41398 4.34033C1.06483 4.49903 0.840668 4.84716 0.840668 5.23069V26.7472C0.840668 27.0797 1.00962 27.3895 1.2892 27.5695C1.56878 27.7495 1.92068 27.7751 2.2234 27.6375C3.94833 26.8535 6.72859 25.9138 9.42316 25.642C12.1772 25.3642 14.4889 25.8126 15.7253 27.3581C15.9109 27.5901 16.1919 27.7252 16.489 27.7252C16.7861 27.7252 17.0671 27.5901 17.2527 27.3581C18.4891 25.8126 20.8008 25.3642 23.5549 25.642C26.2495 25.9138 29.0297 26.8535 30.7546 27.6375C31.0574 27.7751 31.4093 27.7495 31.6888 27.5695C31.9684 27.3895 32.1374 27.0797 32.1374 26.7472V5.23069C32.1374 4.84716 31.9132 4.49903 31.5641 4.34033C29.7029 3.49435 26.7128 2.47803 23.7512 2.17931C21.2093 1.92292 18.4156 2.1723 16.489 3.82828Z" fill="#2169F6"/>
</svg>
