<svg width="24" height="24" viewBox="0 0 24 24" fill="none" xmlns="http://www.w3.org/2000/svg">
<g clip-path="url(#clip0_1_303)">
<path d="M5.25 0.00012207C5.44891 0.00012207 5.63968 0.0791397 5.78033 0.219792C5.92098 0.360444 6 0.55121 6 0.750122V1.50012H18V0.750122C18 0.55121 18.079 0.360444 18.2197 0.219792C18.3603 0.0791397 18.5511 0.00012207 18.75 0.00012207C18.9489 0.00012207 19.1397 0.0791397 19.2803 0.219792C19.421 0.360444 19.5 0.55121 19.5 0.750122V1.50012H21C21.7956 1.50012 22.5587 1.81619 23.1213 2.3788C23.6839 2.94141 24 3.70447 24 4.50012V21.0001C24 21.7958 23.6839 22.5588 23.1213 23.1214C22.5587 23.6841 21.7956 24.0001 21 24.0001H3C2.20435 24.0001 1.44129 23.6841 0.87868 23.1214C0.316071 22.5588 0 21.7958 0 21.0001V4.50012C0 3.70447 0.316071 2.94141 0.87868 2.3788C1.44129 1.81619 2.20435 1.50012 3 1.50012H4.5V0.750122C4.5 0.55121 4.57902 0.360444 4.71967 0.219792C4.86032 0.0791397 5.05109 0.00012207 5.25 0.00012207ZM3 3.00012C2.60218 3.00012 2.22064 3.15816 1.93934 3.43946C1.65804 3.72077 1.5 4.1023 1.5 4.50012V6.00012H22.5V4.50012C22.5 4.1023 22.342 3.72077 22.0607 3.43946C21.7794 3.15816 21.3978 3.00012 21 3.00012H3ZM22.5 7.50012H1.5V21.0001C1.5 21.3979 1.65804 21.7795 1.93934 22.0608C2.22064 22.3421 2.60218 22.5001 3 22.5001H21C21.3978 22.5001 21.7794 22.3421 22.0607 22.0608C22.342 21.7795 22.5 21.3979 22.5 21.0001V7.50012Z" fill="#2169F6"/>
<path d="M16.5 11.2501C16.5 11.0512 16.579 10.8604 16.7197 10.7198C16.8603 10.5791 17.0511 10.5001 17.25 10.5001H18.75C18.9489 10.5001 19.1397 10.5791 19.2803 10.7198C19.421 10.8604 19.5 11.0512 19.5 11.2501V12.7501C19.5 12.949 19.421 13.1398 19.2803 13.2805C19.1397 13.4211 18.9489 13.5001 18.75 13.5001H17.25C17.0511 13.5001 16.8603 13.4211 16.7197 13.2805C16.579 13.1398 16.5 12.949 16.5 12.7501V11.2501Z" fill="#2169F6"/>
</g>
<defs>
<clipPath id="clip0_1_303">
<rect width="24" height="24" fill="white"/>
</clipPath>
</defs>
</svg>
