<svg width="36" height="37" viewBox="0 0 36 37" fill="none" xmlns="http://www.w3.org/2000/svg">
<g clip-path="url(#clip0_210_98)">
<path fill-rule="evenodd" clip-rule="evenodd" d="M24.3504 16.6C24.454 16.7034 24.5362 16.8261 24.5923 16.9613C24.6484 17.0965 24.6772 17.2413 24.6772 17.3877C24.6772 17.534 24.6484 17.6789 24.5923 17.8141C24.5362 17.9492 24.454 18.072 24.3504 18.1753L17.6754 24.8503C17.5721 24.9539 17.4493 25.0361 17.3141 25.0922C17.179 25.1483 17.0341 25.1772 16.8877 25.1772C16.7414 25.1772 16.5965 25.1483 16.4614 25.0922C16.3262 25.0361 16.2034 24.9539 16.1001 24.8503L12.7626 21.5128C12.6592 21.4094 12.5771 21.2866 12.5211 21.1515C12.4652 21.0163 12.4363 20.8715 12.4363 20.7252C12.4363 20.5789 12.4652 20.4341 12.5211 20.2989C12.5771 20.1638 12.6592 20.041 12.7626 19.9375C12.9715 19.7286 13.2548 19.6113 13.5502 19.6113C13.6965 19.6113 13.8414 19.6401 13.9765 19.6961C14.1117 19.752 14.2345 19.8341 14.3379 19.9375L16.8877 22.4896L22.7751 16.6C22.8784 16.4964 23.0012 16.4142 23.1364 16.3581C23.2715 16.3021 23.4164 16.2732 23.5627 16.2732C23.7091 16.2732 23.854 16.3021 23.9891 16.3581C24.1243 16.4142 24.2471 16.4964 24.3504 16.6Z" fill="#2169F6"/>
<path d="M9.09962 4.0376H6.87462C5.69441 4.0376 4.56253 4.50644 3.728 5.34097C2.89346 6.17551 2.42462 7.30738 2.42462 8.4876V31.8501C2.42462 33.0303 2.89346 34.1622 3.728 34.9967C4.56253 35.8313 5.69441 36.3001 6.87462 36.3001H29.1246C30.3048 36.3001 31.4367 35.8313 32.2712 34.9967C33.1058 34.1622 33.5746 33.0303 33.5746 31.8501V8.4876C33.5746 7.30738 33.1058 6.17551 32.2712 5.34097C31.4367 4.50644 30.3048 4.0376 29.1246 4.0376H26.8996V6.2626H29.1246C29.7147 6.2626 30.2807 6.49702 30.6979 6.91428C31.1152 7.33155 31.3496 7.89749 31.3496 8.4876V31.8501C31.3496 32.4402 31.1152 33.0061 30.6979 33.4234C30.2807 33.8407 29.7147 34.0751 29.1246 34.0751H6.87462C6.28451 34.0751 5.71858 33.8407 5.30131 33.4234C4.88404 33.0061 4.64962 32.4402 4.64962 31.8501V8.4876C4.64962 7.89749 4.88404 7.33155 5.30131 6.91428C5.71858 6.49702 6.28451 6.2626 6.87462 6.2626H9.09962V4.0376Z" fill="#2169F6"/>
<path d="M21.3375 2.92495C21.6326 2.92495 21.9155 3.04216 22.1242 3.25079C22.3328 3.45943 22.45 3.7424 22.45 4.03745V6.26245C22.45 6.5575 22.3328 6.84047 22.1242 7.04911C21.9155 7.25774 21.6326 7.37495 21.3375 7.37495H14.6625C14.3675 7.37495 14.0845 7.25774 13.8759 7.04911C13.6672 6.84047 13.55 6.5575 13.55 6.26245V4.03745C13.55 3.7424 13.6672 3.45943 13.8759 3.25079C14.0845 3.04216 14.3675 2.92495 14.6625 2.92495H21.3375ZM14.6625 0.699951C13.7774 0.699951 12.9284 1.05158 12.3025 1.67748C11.6766 2.30338 11.325 3.15229 11.325 4.03745V6.26245C11.325 7.14761 11.6766 7.99652 12.3025 8.62242C12.9284 9.24832 13.7774 9.59995 14.6625 9.59995H21.3375C22.2227 9.59995 23.0716 9.24832 23.6975 8.62242C24.3234 7.99652 24.675 7.14761 24.675 6.26245V4.03745C24.675 3.15229 24.3234 2.30338 23.6975 1.67748C23.0716 1.05158 22.2227 0.699951 21.3375 0.699951L14.6625 0.699951Z" fill="#2169F6"/>
</g>
<defs>
<clipPath id="clip0_210_98">
<rect width="35.6" height="35.6" fill="white" transform="translate(0.200012 0.699951)"/>
</clipPath>
</defs>
</svg>
