<svg width="25" height="24" viewBox="0 0 25 24" fill="none" xmlns="http://www.w3.org/2000/svg">
<g clip-path="url(#clip0_1_237)">
<path d="M13.2725 1.5285C13.0154 1.50952 12.7578 1.50001 12.5 1.5V0C12.7948 0.000143741 13.0895 0.0111512 13.3835 0.033L13.2725 1.5285ZM16.2785 2.2035C15.7977 2.01794 15.3038 1.86804 14.801 1.755L15.1295 0.291C15.7055 0.42 16.2685 0.591 16.8185 0.804L16.2785 2.2035ZM18.3335 3.2685C18.119 3.12546 17.8994 2.99037 17.675 2.8635L18.4145 1.5585C18.9274 1.84899 19.4183 2.17688 19.883 2.5395L18.9605 3.723C18.7571 3.56435 18.548 3.41325 18.3335 3.27V3.2685ZM21.0845 5.9535C20.7878 5.532 20.4604 5.13292 20.105 4.7595L21.191 3.7245C21.597 4.1535 21.9705 4.6085 22.3115 5.0895L21.0845 5.9535ZM22.2005 7.9815C22.1021 7.74364 21.9951 7.50949 21.8795 7.2795L23.219 6.6045C23.4838 7.13118 23.7094 7.67666 23.894 8.2365L22.469 8.706C22.3884 8.46129 22.2989 8.21962 22.2005 7.9815ZM22.9955 11.742C22.9833 11.2265 22.9332 10.7126 22.8455 10.2045L24.323 9.9495C24.423 10.5295 24.481 11.1145 24.497 11.7045L22.9955 11.742ZM22.799 14.049C22.849 13.795 22.8895 13.54 22.9205 13.284L24.41 13.4685C24.3377 14.0537 24.2224 14.6328 24.065 15.201L22.619 14.8005C22.688 14.5535 22.748 14.303 22.799 14.049ZM21.371 17.6175C21.647 17.1815 21.89 16.7275 22.1 16.2555L23.471 16.863C23.231 17.403 22.9535 17.922 22.6385 18.42L21.371 17.6175ZM19.925 19.425C20.108 19.242 20.283 19.053 20.45 18.858L21.587 19.8375C21.3945 20.0608 21.1939 20.277 20.9855 20.4855L19.925 19.425Z" fill="#2169F6"/>
<path d="M12.5 1.5C10.7734 1.50012 9.07336 1.92607 7.55061 2.74011C6.02786 3.55415 4.72937 4.73115 3.77013 6.16687C2.8109 7.6026 2.22054 9.25272 2.05134 10.9711C1.88214 12.6895 2.13932 14.423 2.80011 16.0183C3.4609 17.6135 4.5049 19.0212 5.83964 20.1166C7.17437 21.212 8.75865 21.9613 10.4521 22.2982C12.1456 22.6351 13.8961 22.5492 15.5484 22.048C17.2008 21.5468 18.704 20.6459 19.925 19.425L20.9855 20.4855C19.5901 21.8817 17.8719 22.9121 15.9831 23.4855C14.0943 24.0589 12.0932 24.1575 10.1571 23.7727C8.22108 23.3879 6.40983 22.5315 4.88387 21.2793C3.35791 20.0272 2.16435 18.418 1.40895 16.5943C0.653547 14.7707 0.359627 12.7888 0.553228 10.8244C0.74683 8.85999 1.42198 6.97365 2.51885 5.33253C3.61572 3.6914 5.10045 2.34617 6.84149 1.416C8.58252 0.485843 10.5261 -0.000523098 12.5 4.22187e-07V1.5Z" fill="#2169F6"/>
<path d="M11.75 4.5C11.9489 4.5 12.1397 4.57902 12.2803 4.71967C12.421 4.86032 12.5 5.05109 12.5 5.25V13.065L17.372 15.849C17.5397 15.9502 17.6612 16.1129 17.7104 16.3024C17.7597 16.492 17.7329 16.6933 17.6358 16.8633C17.5386 17.0333 17.3788 17.1586 17.1905 17.2124C17.0022 17.2661 16.8003 17.2441 16.628 17.151L11.378 14.151C11.2632 14.0854 11.1678 13.9907 11.1014 13.8764C11.035 13.762 11 13.6322 11 13.5V5.25C11 5.05109 11.079 4.86032 11.2197 4.71967C11.3603 4.57902 11.5511 4.5 11.75 4.5Z" fill="#2169F6"/>
</g>
<defs>
<clipPath id="clip0_1_237">
<rect width="24" height="24" fill="white" transform="translate(0.5)"/>
</clipPath>
</defs>
</svg>
