<svg width="32" height="32" viewBox="0 0 32 32" fill="none" xmlns="http://www.w3.org/2000/svg">
<g clip-path="url(#clip0_1_626)">
<path d="M16 30C12.287 30 8.72601 28.525 6.1005 25.8995C3.475 23.274 2 19.713 2 16C2 12.287 3.475 8.72601 6.1005 6.1005C8.72601 3.475 12.287 2 16 2C19.713 2 23.274 3.475 25.8995 6.1005C28.525 8.72601 30 12.287 30 16C30 19.713 28.525 23.274 25.8995 25.8995C23.274 28.525 19.713 30 16 30ZM16 32C20.2435 32 24.3131 30.3143 27.3137 27.3137C30.3143 24.3131 32 20.2435 32 16C32 11.7565 30.3143 7.68687 27.3137 4.68629C24.3131 1.68571 20.2435 0 16 0C11.7565 0 7.68687 1.68571 4.68629 4.68629C1.68571 7.68687 0 11.7565 0 16C0 20.2435 1.68571 24.3131 4.68629 27.3137C7.68687 30.3143 11.7565 32 16 32Z" fill="#2169F6"/>
<path d="M14.004 22C14.004 21.7373 14.0557 21.4773 14.1562 21.2346C14.2567 20.992 14.4041 20.7715 14.5898 20.5858C14.7755 20.4001 14.996 20.2527 15.2386 20.1522C15.4813 20.0517 15.7414 20 16.004 20C16.2666 20 16.5267 20.0517 16.7694 20.1522C17.012 20.2527 17.2325 20.4001 17.4182 20.5858C17.6039 20.7715 17.7512 20.992 17.8518 21.2346C17.9523 21.4773 18.004 21.7373 18.004 22C18.004 22.5304 17.7933 23.0391 17.4182 23.4142C17.0431 23.7893 16.5344 24 16.004 24C15.4736 24 14.9649 23.7893 14.5898 23.4142C14.2147 23.0391 14.004 22.5304 14.004 22ZM14.2 9.98999C14.1734 9.73767 14.2001 9.48257 14.2784 9.24125C14.3567 8.99992 14.4849 8.77775 14.6546 8.58916C14.8244 8.40058 15.0318 8.24978 15.2636 8.14655C15.4954 8.04333 15.7463 7.98999 16 7.98999C16.2537 7.98999 16.5046 8.04333 16.7364 8.14655C16.9681 8.24978 17.1756 8.40058 17.3454 8.58916C17.5151 8.77775 17.6433 8.99992 17.7216 9.24125C17.7999 9.48257 17.8266 9.73767 17.8 9.98999L17.1 17.004C17.0765 17.2795 16.9504 17.5362 16.7467 17.7233C16.543 17.9103 16.2765 18.0141 16 18.0141C15.7235 18.0141 15.457 17.9103 15.2533 17.7233C15.0496 17.5362 14.9235 17.2795 14.9 17.004L14.2 9.98999Z" fill="#2169F6"/>
</g>
<defs>
<clipPath id="clip0_1_626">
<rect width="32" height="32" fill="white"/>
</clipPath>
</defs>
</svg>
