<svg width="32" height="32" viewBox="0 0 32 32" fill="none" xmlns="http://www.w3.org/2000/svg">
<path d="M1.07908 7.74L0.999076 6C0.999076 4.93913 1.4205 3.92172 2.17065 3.17157C2.92079 2.42143 3.93821 2 4.99908 2H12.3431C13.4039 2.00023 14.4211 2.4218 15.1711 3.172L16.8271 4.828C17.577 5.5782 18.5943 5.99977 19.6551 6H27.6191C28.1749 5.99994 28.7247 6.11573 29.2333 6.33998C29.7419 6.56423 30.1981 6.89202 30.573 7.30244C30.9478 7.71286 31.233 8.1969 31.4104 8.72369C31.5878 9.25047 31.6534 9.80844 31.6031 10.362L30.3291 24.362C30.2388 25.3558 29.7802 26.28 29.0435 26.9531C28.3067 27.6262 27.345 27.9996 26.3471 28H5.65108C4.65315 27.9996 3.69141 27.6262 2.95467 26.9531C2.21793 26.28 1.75939 25.3558 1.66908 24.362L0.395076 10.362C0.31155 9.43571 0.553417 8.50926 1.07908 7.742V7.74ZM4.37908 8C4.10125 7.99998 3.82646 8.05785 3.57224 8.16992C3.31801 8.28198 3.08993 8.44579 2.90252 8.65088C2.7151 8.85598 2.57248 9.09788 2.48374 9.36115C2.39499 9.62442 2.36207 9.9033 2.38708 10.18L3.66108 24.18C3.70598 24.6769 3.935 25.1391 4.30319 25.4758C4.67137 25.8126 5.15213 25.9995 5.65108 26H26.3471C26.846 25.9995 27.3268 25.8126 27.695 25.4758C28.0631 25.1391 28.2922 24.6769 28.3371 24.18L29.6111 10.18C29.6361 9.9033 29.6032 9.62442 29.5144 9.36115C29.4257 9.09788 29.283 8.85598 29.0956 8.65088C28.9082 8.44579 28.6801 8.28198 28.4259 8.16992C28.1717 8.05785 27.8969 7.99998 27.6191 8H4.37908ZM13.7591 4.586C13.5732 4.40003 13.3524 4.25255 13.1094 4.152C12.8665 4.05144 12.606 3.99979 12.3431 4H4.99908C4.47516 3.99991 3.97213 4.20539 3.59813 4.57229C3.22413 4.93918 3.00903 5.43818 2.99908 5.962L3.01108 6.24C3.44174 6.08133 3.89774 6.00133 4.37908 6H15.1711L13.7591 4.586Z" fill="#2169F6"/>
</svg>
