<svg width="33" height="33" viewBox="0 0 33 33" fill="none" xmlns="http://www.w3.org/2000/svg">
<path d="M24.0982 25.4265V28.6876C24.0982 28.8746 24.1665 29.0365 24.3033 29.1733C24.44 29.3101 24.6021 29.3785 24.7894 29.3785C24.9665 29.3785 25.1247 29.3093 25.2641 29.1709C25.4032 29.0322 25.4727 28.8706 25.4727 28.686V25.4265H28.7446C28.9319 25.4265 29.0907 25.3619 29.2208 25.2328C29.3506 25.1035 29.4156 24.9438 29.4156 24.7539C29.4156 24.5637 29.3512 24.4041 29.2224 24.275C29.0933 24.1456 28.9341 24.081 28.7446 24.081H25.4727V20.8123C25.4727 20.6306 25.4044 20.4712 25.2676 20.3341C25.1309 20.1974 24.9715 20.129 24.7894 20.129C24.6071 20.129 24.4464 20.1987 24.3073 20.3381C24.1679 20.4778 24.0982 20.6364 24.0982 20.8139V24.081H20.8263C20.639 24.081 20.4802 24.1456 20.3501 24.275C20.2203 24.4041 20.1554 24.5637 20.1554 24.7539C20.1554 24.9438 20.2199 25.1035 20.3489 25.2328C20.4777 25.3619 20.6369 25.4265 20.8263 25.4265H24.0982ZM4.81336 28.5816C4.06711 28.5816 3.42819 28.3153 2.8966 27.7828C2.36527 27.2499 2.09961 26.6095 2.09961 25.8615V4.82016C2.09961 4.07218 2.36527 3.43178 2.8966 2.89894C3.42819 2.36638 4.06711 2.1001 4.81336 2.1001H25.838C26.5843 2.1001 27.2232 2.36638 27.7548 2.89894C28.2861 3.43178 28.5518 4.07218 28.5518 4.82016V12.9573C28.5518 13.2662 28.4426 13.5299 28.2242 13.7485C28.0059 13.9669 27.7454 14.076 27.4428 14.076C27.1343 14.076 26.8713 13.9669 26.6537 13.7485C26.4362 13.5299 26.3274 13.2662 26.3274 12.9573V4.82016C26.3274 4.69745 26.2764 4.58509 26.1743 4.48309C26.0726 4.38083 25.9605 4.3297 25.838 4.3297H4.81336C4.69093 4.3297 4.57883 4.38083 4.47707 4.48309C4.37504 4.58509 4.32403 4.69745 4.32403 4.82016V25.8615C4.32403 25.9843 4.37504 26.0967 4.47707 26.199C4.57883 26.301 4.69093 26.352 4.81336 26.352H13.1319C13.4343 26.352 13.6946 26.4614 13.913 26.6803C14.1311 26.8992 14.2401 27.1603 14.2401 27.4636C14.2401 27.7728 14.1311 28.0364 13.913 28.2545C13.6946 28.4726 13.4343 28.5816 13.1319 28.5816H4.81336ZM4.32403 24.667V26.352V4.3297V14.1956V14.076V24.667ZM7.93375 21.4318C7.93375 21.741 8.04267 22.0048 8.2605 22.2231C8.47833 22.4412 8.74147 22.5502 9.04994 22.5502H13.3215C13.6297 22.5502 13.8927 22.4409 14.1105 22.2223C14.3284 22.004 14.4373 21.7414 14.4373 21.4346C14.4373 21.1281 14.3284 20.8658 14.1105 20.6477C13.8927 20.4296 13.6297 20.3206 13.3215 20.3206H9.04994C8.74147 20.3206 8.47833 20.43 8.2605 20.6489C8.04267 20.8678 7.93375 21.1287 7.93375 21.4318ZM7.93375 15.3375C7.93375 15.6466 8.04267 15.9103 8.2605 16.1283C8.47833 16.3467 8.74147 16.4558 9.04994 16.4558H18.4783C18.7865 16.4558 19.0495 16.3465 19.2673 16.1279C19.4854 15.9096 19.5945 15.647 19.5945 15.3403C19.5945 15.0337 19.4854 14.7714 19.2673 14.5534C19.0495 14.3353 18.7865 14.2262 18.4783 14.2262H9.04994C8.74147 14.2262 8.47833 14.3357 8.2605 14.5546C8.04267 14.7732 7.93375 15.0341 7.93375 15.3375ZM7.93375 9.24311C7.93375 9.55229 8.04267 9.81592 8.2605 10.034C8.47833 10.2521 8.74147 10.3611 9.04994 10.3611H21.6094C21.9118 10.3611 22.1721 10.2519 22.3905 10.0336C22.6086 9.81525 22.7177 9.55269 22.7177 9.2459C22.7177 8.93938 22.6086 8.67708 22.3905 8.459C22.1721 8.24067 21.9118 8.1315 21.6094 8.1315H9.04994C8.74147 8.1315 8.47833 8.24093 8.2605 8.4598C8.04267 8.67867 7.93375 8.93977 7.93375 9.24311ZM24.7715 31.7001C22.849 31.7001 21.2128 31.0245 19.8632 29.6733C18.5138 28.3221 17.8391 26.683 17.8391 24.7559C17.8391 22.8288 18.5131 21.1889 19.8612 19.8361C21.2093 18.4836 22.8446 17.8073 24.7672 17.8073C26.69 17.8073 28.3261 18.4829 29.6755 19.8341C31.0249 21.1853 31.6996 22.8245 31.6996 24.7515C31.6996 26.6788 31.0256 28.3188 29.6775 29.6713C28.3295 31.0238 26.6941 31.7001 24.7715 31.7001Z" fill="#2169F6"/>
</svg>
