<svg width="25" height="24" viewBox="0 0 25 24" fill="none" xmlns="http://www.w3.org/2000/svg">
<path d="M12.5 5.25012C12.5 4.83591 12.1642 4.50012 11.75 4.50012C11.3358 4.50012 11 4.83591 11 5.25012V13.5001C11 13.7693 11.1442 14.0178 11.3779 14.1513L16.6279 17.1513C16.9875 17.3568 17.4457 17.2319 17.6512 16.8722C17.8567 16.5126 17.7317 16.0544 17.3721 15.8489L12.5 13.0649V5.25012Z" fill="#2169F6"/>
<path d="M12.5 24.0001C19.1274 24.0001 24.5 18.6275 24.5 12.0001C24.5 5.3727 19.1274 0.00012207 12.5 0.00012207C5.87258 0.00012207 0.5 5.3727 0.5 12.0001C0.5 18.6275 5.87258 24.0001 12.5 24.0001ZM23 12.0001C23 17.7991 18.299 22.5001 12.5 22.5001C6.70101 22.5001 2 17.7991 2 12.0001C2 6.20113 6.70101 1.50012 12.5 1.50012C18.299 1.50012 23 6.20113 23 12.0001Z" fill="#2169F6"/>
</svg>
