<svg width="33" height="33" viewBox="0 0 33 33" fill="none" xmlns="http://www.w3.org/2000/svg">
<path fill-rule="evenodd" clip-rule="evenodd" d="M0.5 0.5H2.5V30.5H32.5V32.5H0.5V0.5ZM20.5 7.5C20.5 7.23478 20.6054 6.98043 20.7929 6.79289C20.9804 6.60536 21.2348 6.5 21.5 6.5H29.5C29.7652 6.5 30.0196 6.60536 30.2071 6.79289C30.3946 6.98043 30.5 7.23478 30.5 7.5V15.5C30.5 15.7652 30.3946 16.0196 30.2071 16.2071C30.0196 16.3946 29.7652 16.5 29.5 16.5C29.2348 16.5 28.9804 16.3946 28.7929 16.2071C28.6054 16.0196 28.5 15.7652 28.5 15.5V10.3L21.274 19.134C21.1855 19.242 21.0755 19.3302 20.9508 19.3931C20.8262 19.456 20.6898 19.492 20.5504 19.499C20.411 19.506 20.2717 19.4837 20.1414 19.4336C20.0111 19.3834 19.8928 19.3066 19.794 19.208L14.62 14.034L7.308 24.088C7.14805 24.2914 6.91548 24.4249 6.65917 24.4604C6.40286 24.4959 6.14276 24.4307 5.93354 24.2784C5.72432 24.1261 5.58226 23.8987 5.53722 23.6439C5.49218 23.3891 5.54766 23.1268 5.692 22.912L13.692 11.912C13.7769 11.795 13.8862 11.6979 14.0123 11.6272C14.1383 11.5565 14.2782 11.514 14.4223 11.5026C14.5664 11.4912 14.7113 11.5111 14.8469 11.5611C14.9826 11.6111 15.1057 11.6898 15.208 11.792L20.426 17.012L27.39 8.5H21.5C21.2348 8.5 20.9804 8.39464 20.7929 8.20711C20.6054 8.01957 20.5 7.76522 20.5 7.5Z" fill="#2169F6"/>
</svg>
