<svg width="32" height="32" viewBox="0 0 32 32" fill="none" xmlns="http://www.w3.org/2000/svg">
<path d="M12.708 11H8C6.4087 11 4.88258 11.6321 3.75736 12.7574C2.63214 13.8826 2 15.4087 2 17C2 18.5913 2.63214 20.1174 3.75736 21.2426C4.88258 22.3679 6.4087 23 8 23H14C14.9601 23.0005 15.9064 22.7706 16.7593 22.3295C17.6121 21.8885 18.3467 21.2492 18.9012 20.4654C19.4558 19.6816 19.8141 18.7761 19.9461 17.8251C20.0782 16.8741 19.98 15.9052 19.66 15H18C17.8267 15 17.66 15.0207 17.5 15.062C17.8373 15.671 18.0098 16.3575 18.0005 17.0536C17.9911 17.7497 17.8003 18.4314 17.4468 19.0311C17.0933 19.6309 16.5894 20.128 15.9848 20.4733C15.3803 20.8186 14.6962 21.0001 14 21H8C6.93913 21 5.92172 20.5786 5.17157 19.8284C4.42143 19.0783 4 18.0609 4 17C4 15.9391 4.42143 14.9217 5.17157 14.1716C5.92172 13.4214 6.93913 13 8 13H11.07C11.506 12.248 12.058 11.572 12.708 11Z" fill="#2169F6"/>
<path d="M17.9992 11C17.0391 10.9995 16.0928 11.2294 15.24 11.6705C14.3871 12.1115 13.6526 12.7508 13.098 13.5346C12.5435 14.3184 12.1851 15.2239 12.0531 16.1749C11.9211 17.1259 12.0192 18.0948 12.3392 19H14.5352C14.1842 18.3919 13.9993 17.7022 13.9993 17C13.9993 16.2979 14.1842 15.6081 14.5352 15C14.8863 14.392 15.3912 13.887 15.9993 13.5359C16.6073 13.1849 17.2971 13 17.9992 13H23.9992C25.0601 13 26.0775 13.4214 26.8277 14.1716C27.5778 14.9217 27.9992 15.9391 27.9992 17C27.9992 18.0609 27.5778 19.0783 26.8277 19.8284C26.0775 20.5786 25.0601 21 23.9992 21H20.9292C20.4947 21.7512 19.9408 22.4267 19.2892 23H23.9992C24.7872 23 25.5674 22.8448 26.2953 22.5433C27.0233 22.2418 27.6847 21.7998 28.2419 21.2426C28.799 20.6855 29.241 20.0241 29.5425 19.2961C29.844 18.5681 29.9992 17.7879 29.9992 17C29.9992 16.2121 29.844 15.4319 29.5425 14.7039C29.241 13.9759 28.799 13.3145 28.2419 12.7574C27.6847 12.2002 27.0233 11.7583 26.2953 11.4567C25.5674 11.1552 24.7872 11 23.9992 11H17.9992Z" fill="#2169F6"/>
</svg>
