<svg width="32" height="33" viewBox="0 0 32 33" fill="none" xmlns="http://www.w3.org/2000/svg">
<g clip-path="url(#clip0_151_78)">
<path d="M0 3.5C0 2.70435 0.31607 1.94129 0.87868 1.37868C1.44129 0.81607 2.20435 0.5 3 0.5L19 0.5C19.7956 0.5 20.5587 0.81607 21.1213 1.37868C21.6839 1.94129 22 2.70435 22 3.5V7.5C22 8.29565 21.6839 9.05871 21.1213 9.62132C20.5587 10.1839 19.7956 10.5 19 10.5H3C2.20435 10.5 1.44129 10.1839 0.87868 9.62132C0.31607 9.05871 0 8.29565 0 7.5L0 3.5ZM3 2.5C2.73478 2.5 2.48043 2.60536 2.29289 2.79289C2.10536 2.98043 2 3.23478 2 3.5V7.5C2 7.76522 2.10536 8.01957 2.29289 8.20711C2.48043 8.39464 2.73478 8.5 3 8.5H19C19.2652 8.5 19.5196 8.39464 19.7071 8.20711C19.8946 8.01957 20 7.76522 20 7.5V3.5C20 3.23478 19.8946 2.98043 19.7071 2.79289C19.5196 2.60536 19.2652 2.5 19 2.5H3Z" fill="#2169F6"/>
<path d="M15.646 6.146L14.854 5.354C14.7839 5.28407 14.7361 5.1949 14.7168 5.09779C14.6974 5.00068 14.7073 4.90001 14.7452 4.80854C14.7831 4.71706 14.8474 4.63891 14.9297 4.58398C15.0121 4.52905 15.109 4.49982 15.208 4.5H16.792C16.891 4.49982 16.9879 4.52905 17.0703 4.58398C17.1526 4.63891 17.2169 4.71706 17.2548 4.80854C17.2927 4.90001 17.3026 5.00068 17.2832 5.09779C17.2639 5.1949 17.2161 5.28407 17.146 5.354L16.354 6.146C16.3076 6.19256 16.2524 6.22951 16.1916 6.25471C16.1309 6.27992 16.0658 6.29289 16 6.29289C15.9342 6.29289 15.8691 6.27992 15.8084 6.25471C15.7476 6.22951 15.6924 6.19256 15.646 6.146ZM0 16.5C0 15.4391 0.421427 14.4217 1.17157 13.6716C1.92172 12.9214 2.93913 12.5 4 12.5H28C29.0609 12.5 30.0783 12.9214 30.8284 13.6716C31.5786 14.4217 32 15.4391 32 16.5V26.5C32 27.5609 31.5786 28.5783 30.8284 29.3284C30.0783 30.0786 29.0609 30.5 28 30.5H4C2.93913 30.5 1.92172 30.0786 1.17157 29.3284C0.421427 28.5783 0 27.5609 0 26.5V16.5ZM2 22.5V26.5C2 27.0304 2.21071 27.5391 2.58579 27.9142C2.96086 28.2893 3.46957 28.5 4 28.5H28C28.5304 28.5 29.0391 28.2893 29.4142 27.9142C29.7893 27.5391 30 27.0304 30 26.5V22.5H2ZM30 20.5V16.5C30 15.9696 29.7893 15.4609 29.4142 15.0858C29.0391 14.7107 28.5304 14.5 28 14.5H4C3.46957 14.5 2.96086 14.7107 2.58579 15.0858C2.21071 15.4609 2 15.9696 2 16.5V20.5H30ZM4 17.5C4 17.2348 4.10536 16.9804 4.29289 16.7929C4.48043 16.6054 4.73478 16.5 5 16.5H23C23.2652 16.5 23.5196 16.6054 23.7071 16.7929C23.8946 16.9804 24 17.2348 24 17.5C24 17.7652 23.8946 18.0196 23.7071 18.2071C23.5196 18.3946 23.2652 18.5 23 18.5H5C4.73478 18.5 4.48043 18.3946 4.29289 18.2071C4.10536 18.0196 4 17.7652 4 17.5ZM4 25.5C4 25.2348 4.10536 24.9804 4.29289 24.7929C4.48043 24.6054 4.73478 24.5 5 24.5H17C17.2652 24.5 17.5196 24.6054 17.7071 24.7929C17.8946 24.9804 18 25.2348 18 25.5C18 25.7652 17.8946 26.0196 17.7071 26.2071C17.5196 26.3946 17.2652 26.5 17 26.5H5C4.73478 26.5 4.48043 26.3946 4.29289 26.2071C4.10536 26.0196 4 25.7652 4 25.5Z" fill="#2169F6"/>
</g>
<defs>
<clipPath id="clip0_151_78">
<rect width="32" height="32" fill="white" transform="translate(0 0.5)"/>
</clipPath>
</defs>
</svg>
