<svg width="37" height="39" viewBox="0 0 37 39" fill="none" xmlns="http://www.w3.org/2000/svg">
<path d="M8.88546 21.0347C8.50702 21.0347 8.18142 20.9108 7.90865 20.6631C7.63622 20.4157 7.5 20.1147 7.5 19.7604V3.12053C7.5 2.2603 7.83055 1.52515 8.49166 0.915087C9.1531 0.305028 9.94977 0 10.8817 0H26.4982L36.5 9.22951V30.8795C36.5 31.7397 36.1694 32.4749 35.5083 33.0849C34.8469 33.695 34.0502 34 33.1183 34H23.5717C23.1877 34 22.8614 33.874 22.5929 33.622C22.3248 33.3703 22.1907 33.0698 22.1907 32.7206C22.1907 32.3714 22.3248 32.0711 22.5929 31.8197C22.8614 31.568 23.1877 31.4421 23.5717 31.4421H33.1183C33.2963 31.4421 33.4424 31.3894 33.5567 31.284C33.671 31.1786 33.7281 31.0437 33.7281 30.8795V10.5267H26.7795C26.3112 10.5267 25.913 10.3753 25.5848 10.0724C25.2562 9.76918 25.0919 9.40153 25.0919 8.96943V2.55786H10.8817C10.7037 2.55786 10.5575 2.61058 10.4433 2.71601C10.329 2.82145 10.2719 2.95629 10.2719 3.12053V19.7604C10.2719 20.1147 10.1354 20.4157 9.86226 20.6631C9.5895 20.9108 9.2639 21.0347 8.88546 21.0347Z" fill="#2169F6"/>
<path d="M5.59817 35.0803C4.37467 35.0803 3.33592 34.6357 2.48192 33.7465C1.62809 32.8571 1.20117 31.7751 1.20117 30.5007C1.20117 29.2263 1.62809 28.1443 2.48192 27.2546C3.33592 26.3648 4.37467 25.9199 5.59817 25.9199H8.58967C8.78034 25.9199 8.94417 25.9913 9.08117 26.134C9.21817 26.2769 9.28667 26.4476 9.28667 26.6462C9.28667 26.8483 9.21817 27.0207 9.08117 27.1634C8.94417 27.3059 8.78034 27.3772 8.58967 27.3772H5.59717C4.76834 27.3772 4.06167 27.6816 3.47717 28.2905C2.8925 28.8995 2.60017 29.6361 2.60017 30.5001C2.60017 31.3642 2.8925 32.1007 3.47717 32.7098C4.06167 33.3186 4.76834 33.623 5.59717 33.623H8.58967C8.78034 33.623 8.94417 33.6945 9.08117 33.8374C9.21817 33.9801 9.28667 34.1508 9.28667 34.3496C9.28667 34.5517 9.21817 34.724 9.08117 34.8665C8.94417 35.0091 8.78034 35.0803 8.58967 35.0803H5.59817ZM7.53192 31.2184C7.33792 31.2184 7.17242 31.1469 7.03542 31.004C6.89842 30.8613 6.82992 30.6889 6.82992 30.4868C6.82992 30.2881 6.89842 30.1174 7.03542 29.9749C7.17242 29.8323 7.33792 29.7611 7.53192 29.7611H13.4712C13.662 29.7611 13.8259 29.8324 13.9629 29.9751C14.0999 30.118 14.1684 30.2888 14.1684 30.4874C14.1684 30.6895 14.0999 30.8618 13.9629 31.0043C13.8259 31.147 13.662 31.2184 13.4712 31.2184H7.53192ZM12.4137 35.0803C12.2197 35.0803 12.0542 35.009 11.9172 34.8663C11.7802 34.7234 11.7117 34.5509 11.7117 34.3488C11.7117 34.1502 11.7802 33.9796 11.9172 33.8368C12.0542 33.6943 12.2197 33.623 12.4137 33.623H15.4012C16.23 33.623 16.9367 33.3186 17.5212 32.7098C18.1058 32.1007 18.3982 31.3642 18.3982 30.5001C18.3982 29.6361 18.1058 28.8995 17.5212 28.2905C16.9367 27.6816 16.23 27.3772 15.4012 27.3772H12.4137C12.2197 27.3772 12.0542 27.3058 11.9172 27.1629C11.7802 27.0202 11.7117 26.8478 11.7117 26.6457C11.7117 26.4469 11.7802 26.2763 11.9172 26.1337C12.0542 25.9912 12.2197 25.9199 12.4137 25.9199H15.4002C16.6237 25.9199 17.6624 26.3645 18.5164 27.2538C19.3703 28.1432 19.7972 29.2251 19.7972 30.4996C19.7972 31.7739 19.3703 32.8559 18.5164 33.7457C17.6624 34.6355 16.6237 35.0803 15.4002 35.0803H12.4137Z" fill="#2169F6"/>
</svg>
