<svg width="33" height="32" viewBox="0 0 33 32" fill="none" xmlns="http://www.w3.org/2000/svg">
<path d="M16.5 16C18.0913 16 19.6174 15.3679 20.7426 14.2426C21.8679 13.1174 22.5 11.5913 22.5 10C22.5 8.4087 21.8679 6.88258 20.7426 5.75736C19.6174 4.63214 18.0913 4 16.5 4C14.9087 4 13.3826 4.63214 12.2574 5.75736C11.1321 6.88258 10.5 8.4087 10.5 10C10.5 11.5913 11.1321 13.1174 12.2574 14.2426C13.3826 15.3679 14.9087 16 16.5 16ZM20.5 10C20.5 11.0609 20.0786 12.0783 19.3284 12.8284C18.5783 13.5786 17.5609 14 16.5 14C15.4391 14 14.4217 13.5786 13.6716 12.8284C12.9214 12.0783 12.5 11.0609 12.5 10C12.5 8.93913 12.9214 7.92172 13.6716 7.17157C14.4217 6.42143 15.4391 6 16.5 6C17.5609 6 18.5783 6.42143 19.3284 7.17157C20.0786 7.92172 20.5 8.93913 20.5 10ZM28.5 26C28.5 28 26.5 28 26.5 28H6.5C6.5 28 4.5 28 4.5 26C4.5 24 6.5 18 16.5 18C26.5 18 28.5 24 28.5 26ZM26.5 25.992C26.498 25.5 26.192 24.02 24.836 22.664C23.532 21.36 21.078 20 16.5 20C11.922 20 9.468 21.36 8.164 22.664C6.808 24.02 6.504 25.5 6.5 25.992H26.5Z" fill="#2169F6"/>
</svg>
