<svg width="75" height="26" viewBox="0 0 75 26" fill="none" xmlns="http://www.w3.org/2000/svg">
<rect x="0.6" y="0.6" width="73.8" height="24.8" rx="12.4" stroke="#43A1F5" stroke-width="1.2"/>
<path d="M12.4336 14.2051L14.1211 14.041C14.2227 14.6074 14.4277 15.0234 14.7363 15.2891C15.0488 15.5547 15.4688 15.6875 15.9961 15.6875C16.5547 15.6875 16.9746 15.5703 17.2559 15.3359C17.541 15.0977 17.6836 14.8203 17.6836 14.5039C17.6836 14.3008 17.623 14.1289 17.502 13.9883C17.3848 13.8438 17.1777 13.7188 16.8809 13.6133C16.6777 13.543 16.2148 13.418 15.4922 13.2383C14.5625 13.0078 13.9102 12.7246 13.5352 12.3887C13.0078 11.916 12.7441 11.3398 12.7441 10.6602C12.7441 10.2227 12.8672 9.81445 13.1133 9.43555C13.3633 9.05273 13.7207 8.76172 14.1855 8.5625C14.6543 8.36328 15.2188 8.26367 15.8789 8.26367C16.957 8.26367 17.7676 8.5 18.3105 8.97266C18.8574 9.44531 19.1445 10.0762 19.1719 10.8652L17.4375 10.9414C17.3633 10.5 17.2031 10.1836 16.957 9.99219C16.7148 9.79688 16.3496 9.69922 15.8613 9.69922C15.3574 9.69922 14.9629 9.80273 14.6777 10.0098C14.4941 10.1426 14.4023 10.3203 14.4023 10.543C14.4023 10.7461 14.4883 10.9199 14.6602 11.0645C14.8789 11.248 15.4102 11.4395 16.2539 11.6387C17.0977 11.8379 17.7207 12.0449 18.123 12.2598C18.5293 12.4707 18.8457 12.7617 19.0723 13.1328C19.3027 13.5 19.418 13.9551 19.418 14.498C19.418 14.9902 19.2812 15.4512 19.0078 15.8809C18.7344 16.3105 18.3477 16.6309 17.8477 16.8418C17.3477 17.0488 16.7246 17.1523 15.9785 17.1523C14.8926 17.1523 14.0586 16.9023 13.4766 16.4023C12.8945 15.8984 12.5469 15.166 12.4336 14.2051ZM24.4688 15.0195L26.1094 15.2949C25.8984 15.8965 25.5645 16.3555 25.1074 16.6719C24.6543 16.9844 24.0859 17.1406 23.4023 17.1406C22.3203 17.1406 21.5195 16.7871 21 16.0801C20.5898 15.5137 20.3848 14.7988 20.3848 13.9355C20.3848 12.9043 20.6543 12.0977 21.1934 11.5156C21.7324 10.9297 22.4141 10.6367 23.2383 10.6367C24.1641 10.6367 24.8945 10.9434 25.4297 11.5566C25.9648 12.166 26.2207 13.1016 26.1973 14.3633H22.0723C22.084 14.8516 22.2168 15.2324 22.4707 15.5059C22.7246 15.7754 23.041 15.9102 23.4199 15.9102C23.6777 15.9102 23.8945 15.8398 24.0703 15.6992C24.2461 15.5586 24.3789 15.332 24.4688 15.0195ZM24.5625 13.3555C24.5508 12.8789 24.4277 12.5176 24.1934 12.2715C23.959 12.0215 23.6738 11.8965 23.3379 11.8965C22.9785 11.8965 22.6816 12.0273 22.4473 12.2891C22.2129 12.5508 22.0977 12.9062 22.1016 13.3555H24.5625ZM29.1211 17H27.4746V10.7773H29.0039V11.6621C29.2656 11.2441 29.5 10.9688 29.707 10.8359C29.918 10.7031 30.1562 10.6367 30.4219 10.6367C30.7969 10.6367 31.1582 10.7402 31.5059 10.9473L30.9961 12.3828C30.7188 12.2031 30.4609 12.1133 30.2227 12.1133C29.9922 12.1133 29.7969 12.1777 29.6367 12.3066C29.4766 12.4316 29.3496 12.6602 29.2559 12.9922C29.166 13.3242 29.1211 14.0195 29.1211 15.0781V17ZM33.9316 17L31.4238 10.7773H33.1523L34.3242 13.9531L34.6641 15.0137C34.7539 14.7441 34.8105 14.5664 34.834 14.4805C34.8887 14.3047 34.9473 14.1289 35.0098 13.9531L36.1934 10.7773H37.8867L35.4141 17H33.9316ZM38.9004 9.93359V8.41016H40.5469V9.93359H38.9004ZM38.9004 17V10.7773H40.5469V17H38.9004ZM47.666 12.6172L46.043 12.9102C45.9883 12.5859 45.8633 12.3418 45.668 12.1777C45.4766 12.0137 45.2266 11.9316 44.918 11.9316C44.5078 11.9316 44.1797 12.0742 43.9336 12.3594C43.6914 12.6406 43.5703 13.1133 43.5703 13.7773C43.5703 14.5156 43.6934 15.0371 43.9395 15.3418C44.1895 15.6465 44.5234 15.7988 44.9414 15.7988C45.2539 15.7988 45.5098 15.7109 45.709 15.5352C45.9082 15.3555 46.0488 15.0488 46.1309 14.6152L47.748 14.8906C47.5801 15.6328 47.2578 16.1934 46.7812 16.5723C46.3047 16.9512 45.666 17.1406 44.8652 17.1406C43.9551 17.1406 43.2285 16.8535 42.6855 16.2793C42.1465 15.7051 41.877 14.9102 41.877 13.8945C41.877 12.8672 42.1484 12.0684 42.6914 11.498C43.2344 10.9238 43.9688 10.6367 44.8945 10.6367C45.6523 10.6367 46.2539 10.8008 46.6992 11.1289C47.1484 11.4531 47.4707 11.9492 47.666 12.6172ZM43.2305 19.3613V18.6699C43.6328 18.7129 44.002 18.7344 44.3379 18.7344C44.6855 18.7344 44.9434 18.6719 45.1113 18.5469C45.2402 18.4531 45.3047 18.332 45.3047 18.1836C45.3047 18.0508 45.2441 17.9355 45.123 17.8379C45.002 17.7402 44.8145 17.6914 44.5605 17.6914C44.3105 17.6914 44.0547 17.7305 43.793 17.8086L43.9453 17.2285C44.25 17.123 44.5781 17.0703 44.9297 17.0703C45.418 17.0703 45.7891 17.1777 46.043 17.3926C46.2969 17.6074 46.4238 17.8691 46.4238 18.1777C46.4238 18.5215 46.2832 18.8008 46.002 19.0156C45.623 19.3086 45.0801 19.4551 44.373 19.4551C43.8691 19.4551 43.4883 19.4238 43.2305 19.3613ZM48.5391 13.8008C48.5391 13.2539 48.6738 12.7246 48.9434 12.2129C49.2129 11.7012 49.5938 11.3105 50.0859 11.041C50.582 10.7715 51.1348 10.6367 51.7441 10.6367C52.6855 10.6367 53.457 10.9434 54.0586 11.5566C54.6602 12.166 54.9609 12.9375 54.9609 13.8711C54.9609 14.8125 54.6562 15.5938 54.0469 16.2148C53.4414 16.832 52.6777 17.1406 51.7559 17.1406C51.1855 17.1406 50.6406 17.0117 50.1211 16.7539C49.6055 16.4961 49.2129 16.1191 48.9434 15.623C48.6738 15.123 48.5391 14.5156 48.5391 13.8008ZM50.2266 13.8887C50.2266 14.5059 50.373 14.9785 50.666 15.3066C50.959 15.6348 51.3203 15.7988 51.75 15.7988C52.1797 15.7988 52.5391 15.6348 52.8281 15.3066C53.1211 14.9785 53.2676 14.502 53.2676 13.877C53.2676 13.2676 53.1211 12.7988 52.8281 12.4707C52.5391 12.1426 52.1797 11.9785 51.75 11.9785C51.3203 11.9785 50.959 12.1426 50.666 12.4707C50.373 12.7988 50.2266 13.2715 50.2266 13.8887ZM55.6758 15.2246L57.3281 14.9727C57.3984 15.293 57.541 15.5371 57.7559 15.7051C57.9707 15.8691 58.2715 15.9512 58.6582 15.9512C59.084 15.9512 59.4043 15.873 59.6191 15.7168C59.7637 15.6074 59.8359 15.4609 59.8359 15.2773C59.8359 15.1523 59.7969 15.0488 59.7188 14.9668C59.6367 14.8887 59.4531 14.8164 59.168 14.75C57.8398 14.457 56.998 14.1895 56.6426 13.9473C56.1504 13.6113 55.9043 13.1445 55.9043 12.5469C55.9043 12.0078 56.1172 11.5547 56.543 11.1875C56.9688 10.8203 57.6289 10.6367 58.5234 10.6367C59.375 10.6367 60.0078 10.7754 60.4219 11.0527C60.8359 11.3301 61.1211 11.7402 61.2773 12.2832L59.7246 12.5703C59.6582 12.3281 59.5312 12.1426 59.3438 12.0137C59.1602 11.8848 58.8965 11.8203 58.5527 11.8203C58.1191 11.8203 57.8086 11.8809 57.6211 12.002C57.4961 12.0879 57.4336 12.1992 57.4336 12.3359C57.4336 12.4531 57.4883 12.5527 57.5977 12.6348C57.7461 12.7441 58.2578 12.8984 59.1328 13.0977C60.0117 13.2969 60.625 13.541 60.9727 13.8301C61.3164 14.123 61.4883 14.5312 61.4883 15.0547C61.4883 15.625 61.25 16.1152 60.7734 16.5254C60.2969 16.9355 59.5918 17.1406 58.6582 17.1406C57.8105 17.1406 57.1387 16.9688 56.6426 16.625C56.1504 16.2812 55.8281 15.8145 55.6758 15.2246Z" fill="#43A1F5"/>
</svg>
