<svg width="40" height="41" viewBox="0 0 40 41" fill="none" xmlns="http://www.w3.org/2000/svg">
<g clip-path="url(#clip0_210_110)">
<path d="M9.17648 34.1518C8.82081 34.1518 8.51892 34.0276 8.27081 33.7792C8.0224 33.531 7.89819 33.2292 7.89819 32.8735C7.89819 32.5178 8.0224 32.2144 8.27081 31.9632C8.51892 31.7124 8.82081 31.5869 9.17648 31.5869H10.6853L14.2548 19.6194C14.4546 18.9353 14.832 18.3908 15.3869 17.9859C15.9415 17.581 16.5613 17.3786 17.2464 17.3786H22.7537C23.4387 17.3786 24.0586 17.581 24.6131 17.9859C25.168 18.3908 25.5454 18.9353 25.7452 19.6194L29.3147 31.5869H30.8236C31.1792 31.5869 31.4826 31.7127 31.7338 31.9642C31.985 32.2153 32.1106 32.5187 32.1106 32.8744C32.1106 33.2301 31.985 33.532 31.7338 33.7801C31.4826 34.0279 31.1792 34.1518 30.8236 34.1518H9.17648ZM13.384 31.5869H26.6248L23.2826 20.3491C23.2472 20.2256 23.1795 20.1272 23.0796 20.0539C22.9796 19.9803 22.8651 19.9434 22.7358 19.9434H17.2642C17.135 19.9434 17.0204 19.9803 16.9205 20.0539C16.8206 20.1272 16.7529 20.2256 16.7174 20.3491L13.384 31.5869ZM18.7222 11.6847V6.18474C18.7222 5.82937 18.8462 5.52611 19.0944 5.27494C19.3428 5.02378 19.6448 4.89819 20.0005 4.89819C20.3561 4.89819 20.6594 5.02378 20.9103 5.27494C21.1614 5.52611 21.287 5.82937 21.287 6.18474V11.6847C21.287 12.0404 21.1613 12.3423 20.9098 12.5904C20.6586 12.8388 20.3552 12.963 19.9996 12.963C19.6439 12.963 19.342 12.8388 19.0939 12.5904C18.8461 12.3423 18.7222 12.0404 18.7222 11.6847ZM28.1689 14.5282L32.0964 10.6324C32.3445 10.3938 32.6389 10.2766 32.9796 10.2809C33.3206 10.2848 33.6237 10.4165 33.8889 10.6759C34.1254 10.9124 34.2436 11.2006 34.2436 11.5404C34.2436 11.8798 34.1243 12.1736 33.8857 12.4217L29.9899 16.3634C29.7268 16.6207 29.4234 16.7522 29.0796 16.758C28.7359 16.7641 28.4323 16.6326 28.1689 16.3634C27.8997 16.0942 27.7651 15.7883 27.7651 15.4458C27.7651 15.1033 27.8997 14.7974 28.1689 14.5282ZM32.8334 23.2315H38.3334C38.6887 23.2315 38.9921 23.3571 39.2436 23.6083C39.4948 23.8597 39.6204 24.1633 39.6204 24.519C39.6204 24.8747 39.4948 25.1764 39.2436 25.4242C38.9921 25.6723 38.6887 25.7964 38.3334 25.7964H32.8334C32.478 25.7964 32.1761 25.6722 31.9277 25.4237C31.6796 25.1753 31.5555 24.8733 31.5555 24.5176C31.5555 24.1619 31.6796 23.8587 31.9277 23.6078C32.1761 23.357 32.478 23.2315 32.8334 23.2315ZM10.0189 16.3492L6.12306 12.4217C5.87862 12.1736 5.75854 11.8792 5.76281 11.5385C5.76679 11.1978 5.89848 10.8947 6.1579 10.6292C6.3944 10.3927 6.68254 10.2744 7.02231 10.2744C7.36179 10.2744 7.65558 10.3938 7.90369 10.6324L11.8454 14.5282C12.1026 14.7916 12.2342 15.0952 12.24 15.4389C12.2458 15.7827 12.1142 16.0861 11.8454 16.3492C11.5762 16.6184 11.2703 16.753 10.9278 16.753C10.5852 16.753 10.2823 16.6184 10.0189 16.3492ZM1.66669 25.7964C1.31133 25.7964 1.00944 25.6722 0.761022 25.4237C0.512911 25.1753 0.388855 24.8733 0.388855 24.5176C0.388855 24.1619 0.512911 23.8587 0.761022 23.6078C1.00944 23.357 1.31133 23.2315 1.66669 23.2315H7.16669C7.52205 23.2315 7.82547 23.3571 8.07694 23.6083C8.3281 23.8597 8.45369 24.1633 8.45369 24.519C8.45369 24.8747 8.3281 25.1764 8.07694 25.4242C7.82547 25.6723 7.52205 25.7964 7.16669 25.7964H1.66669Z" fill="#2169F6"/>
</g>
<defs>
<clipPath id="clip0_210_110">
<rect width="40" height="40" fill="white" transform="translate(0 0.5)"/>
</clipPath>
</defs>
</svg>
