<svg width="32" height="33" viewBox="0 0 32 33" fill="none" xmlns="http://www.w3.org/2000/svg">
<path d="M7.30871 3.15652C7.19065 3.00465 7.04162 2.87964 6.87153 2.78978C6.70144 2.69993 6.51418 2.6473 6.32218 2.63538C6.13019 2.62346 5.93785 2.65254 5.75795 2.72066C5.57806 2.78879 5.41471 2.89442 5.27878 3.03053L3.21084 5.10048C2.24487 6.06845 1.88888 7.43842 2.31087 8.64039C4.06427 13.6145 6.91303 18.131 10.6466 21.8561C14.3717 25.5897 18.8881 28.4384 23.8622 30.1919C25.0642 30.6139 26.4341 30.2579 27.4021 29.2919L29.47 27.2239C29.6061 27.088 29.7118 26.9247 29.7799 26.7448C29.848 26.5649 29.8771 26.3725 29.8652 26.1805C29.8532 25.9885 29.8006 25.8013 29.7108 25.6312C29.6209 25.4611 29.4959 25.312 29.344 25.194L24.7302 21.6061C24.5678 21.4805 24.3791 21.3933 24.1782 21.351C23.9773 21.3088 23.7694 21.3126 23.5702 21.3621L19.1903 22.4561C18.6057 22.6012 17.9934 22.5929 17.4129 22.4321C16.8323 22.2713 16.3031 21.9634 15.8764 21.5381L10.9646 16.6242C10.539 16.1977 10.2307 15.6686 10.0695 15.088C9.90831 14.5075 9.89975 13.8951 10.0446 13.3103L11.1406 8.93038C11.1901 8.73116 11.1939 8.52331 11.1516 8.32242C11.1094 8.12153 11.0222 7.93281 10.8966 7.77041L7.30871 3.15652ZM3.76882 1.52256C4.1188 1.17247 4.53926 0.900841 5.00226 0.725707C5.46527 0.550573 5.96024 0.475944 6.4543 0.506776C6.94836 0.537608 7.43021 0.673195 7.86786 0.904534C8.3055 1.13587 8.68892 1.45767 8.99266 1.84856L12.5805 6.46044C13.2385 7.30642 13.4705 8.4084 13.2105 9.44837L12.1166 13.8283C12.0604 14.0551 12.0636 14.2927 12.126 14.5179C12.1884 14.7432 12.3077 14.9485 12.4726 15.1142L17.3864 20.0281C17.5523 20.1933 17.758 20.3128 17.9836 20.3752C18.2093 20.4376 18.4472 20.4406 18.6744 20.3841L23.0522 19.2901C23.5655 19.1626 24.101 19.153 24.6185 19.2621C25.136 19.3712 25.6221 19.5962 26.0401 19.9201L30.652 23.508C32.3099 24.798 32.4619 27.2479 30.978 28.7299L28.91 30.7978C27.4301 32.2778 25.2182 32.9278 23.1562 32.2018C17.8777 30.347 13.0856 27.3254 9.13666 23.362C5.17352 19.4136 2.15198 14.6222 0.296933 9.34437C-0.427045 7.28442 0.222935 5.07048 1.70289 3.59051L3.76882 1.52256Z" fill="#2169F6"/>
</svg>
